<svg xmlns="http://www.w3.org/2000/svg" width="1200" height="360" viewBox="0 0 1200 360" role="img" aria-labelledby="title desc">
<title id="title">bencefetch developer card</title>
<desc id="desc">Neofetch-inspired developer card showing Budai Bence's development stack and interests.</desc>
<defs>
  <linearGradient id="bg" x1="0" y1="0" x2="1" y2="1"><stop stop-color="#0c1119"/><stop offset="1" stop-color="#111827"/></linearGradient>
  <linearGradient id="bb" x1="0" y1="0" x2="0" y2="1"><stop stop-color="#6ea0ff"/><stop offset="1" stop-color="#9f7aea"/></linearGradient>
</defs>
<rect width="1200" height="360" rx="24" fill="url(#bg)"/>
<rect x="34" y="30" width="1132" height="300" rx="16" fill="#0a0f16" stroke="#293244"/>
<g font-family="ui-monospace,SFMono-Regular,Menlo,Consolas,monospace">
  <circle cx="61" cy="55" r="6" fill="#ff5f56"/><circle cx="81" cy="55" r="6" fill="#ffbd2e"/><circle cx="101" cy="55" r="6" fill="#27c93f"/>
  <text x="536" y="61" font-size="13" fill="#6f7e95">bencefetch</text>

  <g fill="url(#bb)" font-size="28" font-weight="700">
    <text x="80" y="128">██████╗ ██████╗</text>
    <text x="80" y="164">██╔══██╗██╔══██╗</text>
    <text x="80" y="200">██████╔╝██████╔╝</text>
    <text x="80" y="236">██╔══██╗██╔══██╗</text>
    <text x="80" y="272">██████╔╝██████╔╝</text>
    <text x="80" y="308">╚═════╝ ╚═════╝</text>
  </g>

  <text x="555" y="105" font-size="18" font-weight="700" fill="#eef3fb">bence@github</text>
  <text x="555" y="126" font-size="13" fill="#65738a">────────────────────────────────────────</text>

  <g font-size="14">
    <text x="555" y="154" fill="#91a0b5">Role</text><text x="660" y="154" fill="#dce5f3">Software Developer</text>
    <text x="555" y="179" fill="#91a0b5">Primary</text><text x="660" y="179" fill="#9db7ff">C# · .NET · ASP.NET Core</text>
    <text x="555" y="204" fill="#91a0b5">Data</text><text x="660" y="204" fill="#efb7c8">SQL Server · EF Core</text>
    <text x="555" y="229" fill="#91a0b5">Shell</text><text x="660" y="229" fill="#bda9f3">PowerShell</text>
    <text x="555" y="254" fill="#91a0b5">Infra</text><text x="660" y="254" fill="#9bd4ef">IIS · Docker · Tailscale</text>
    <text x="555" y="279" fill="#91a0b5">Lab</text><text x="660" y="279" fill="#86efac">Self-hosting · Local AI · MCP</text>
    <text x="555" y="304" fill="#91a0b5">Status</text><text x="660" y="304" fill="#86efac">● building &amp; learning</text>
  </g>
</g>
</svg>