<svg xmlns="http://www.w3.org/2000/svg" width="1200" height="430" viewBox="0 0 1200 430" role="img" aria-labelledby="t d">
<title id="t">Budai Bence PowerShell developer profile</title>
<desc id="d">Windows Terminal and PowerShell inspired developer identity for Budai Bence.</desc>
<defs>
  <linearGradient id="bg" x1="0" y1="0" x2="1" y2="1">
    <stop offset="0" stop-color="#f8fbff"/>
    <stop offset="1" stop-color="#f7f2ff"/>
  </linearGradient>
  <linearGradient id="bb" x1="0" y1="0" x2="1" y2="1">
    <stop stop-color="#2f73d9"/>
    <stop offset="1" stop-color="#7751c8"/>
  </linearGradient>
</defs>
<rect width="1200" height="430" rx="26" fill="url(#bg)"/>
<rect x="30" y="28" width="1140" height="374" rx="18" fill="#ffffff" stroke="#cbd6e6"/>
<rect x="30" y="28" width="1140" height="42" rx="18" fill="#eef2f8"/>
<rect x="30" y="52" width="1140" height="18" fill="#eef2f8"/>
<text x="58" y="55" font-family="Segoe UI,Arial,sans-serif" font-size="13" fill="#4c596d">Windows PowerShell</text>
<text x="1110" y="55" font-family="Segoe UI,Arial,sans-serif" font-size="16" fill="#7b8798">—  □  ×</text>

<g font-family="Cascadia Mono,Consolas,ui-monospace,monospace">
  <g fill="url(#bb)" font-size="27" font-weight="700">
    <text x="68" y="136">██████╗ ██████╗</text>
    <text x="68" y="172">██╔══██╗██╔══██╗</text>
    <text x="68" y="208">██████╔╝██████╔╝</text>
    <text x="68" y="244">██╔══██╗██╔══██╗</text>
    <text x="68" y="280">██████╔╝██████╔╝</text>
    <text x="68" y="316">╚═════╝ ╚═════╝</text>
  </g>

  <text x="505" y="112" font-size="14" fill="#69768b">PS C:\Users\Bence&gt;</text>
  <text x="685" y="112" font-size="14" fill="#182235">Get-Profile</text>
  <text x="505" y="149" font-size="14" fill="#69768b">Name</text>
  <text x="650" y="149" font-size="14" fill="#26364e">Budai Bence</text>
  <text x="505" y="177" font-size="14" fill="#69768b">Role</text>
  <text x="650" y="177" font-size="14" fill="#26364e">Software Developer</text>
  <text x="505" y="205" font-size="14" fill="#69768b">Primary</text>
  <text x="650" y="205" font-size="14" fill="#356fe3">C# · .NET · ASP.NET Core</text>
  <text x="505" y="233" font-size="14" fill="#69768b">Automation</text>
  <text x="650" y="233" font-size="14" fill="#7650c7">PowerShell · GitHub Actions</text>
  <text x="505" y="261" font-size="14" fill="#69768b">Infrastructure</text>
  <text x="650" y="261" font-size="14" fill="#27718d">Windows Server · IIS · Docker · Tailscale</text>
  <text x="505" y="289" font-size="14" fill="#69768b">Lab</text>
  <text x="650" y="289" font-size="14" fill="#198754">Local AI · MCP · Self-hosting</text>
  <text x="505" y="335" font-size="14" fill="#69768b">PS C:\Users\Bence&gt;</text>
  <rect x="685" y="322" width="10" height="18" rx="1.5" fill="#26364e">
    <animate attributeName="opacity" values="1;.15;1" dur="1.1s" repeatCount="indefinite"/>
  </rect>

  <text x="68" y="368" font-size="13" fill="#71809a">Budapest, Hungary · Óbuda University / NIK · Build → Automate → Improve</text>
</g>
</svg>