<svg xmlns="http://www.w3.org/2000/svg" width="1200" height="430" viewBox="0 0 1200 430" role="img" aria-labelledby="t d">
<title id="t">Budai Bence PowerShell developer profile</title>
<desc id="d">Windows Terminal and PowerShell inspired developer identity for Budai Bence.</desc>
<defs>
  <linearGradient id="bg" x1="0" y1="0" x2="1" y2="1">
    <stop offset="0" stop-color="#0b1020"/>
    <stop offset="1" stop-color="#171225"/>
  </linearGradient>
  <linearGradient id="bb" x1="0" y1="0" x2="1" y2="1">
    <stop stop-color="#4ea1ff"/>
    <stop offset="1" stop-color="#a970ff"/>
  </linearGradient>
</defs>
<rect width="1200" height="430" rx="26" fill="url(#bg)"/>
<rect x="30" y="28" width="1140" height="374" rx="18" fill="#0c111b" stroke="#2a3346"/>
<rect x="30" y="28" width="1140" height="42" rx="18" fill="#111827"/>
<rect x="30" y="52" width="1140" height="18" fill="#111827"/>
<text x="58" y="55" font-family="Segoe UI,Arial,sans-serif" font-size="13" fill="#b8c2d3">Windows PowerShell</text>
<text x="1110" y="55" font-family="Segoe UI,Arial,sans-serif" font-size="16" fill="#6f7c90">—  □  ×</text>

<g font-family="Cascadia Mono,Consolas,ui-monospace,monospace">
  <g fill="url(#bb)" font-size="27" font-weight="700">
    <text x="68" y="136">██████╗ ██████╗</text>
    <text x="68" y="172">██╔══██╗██╔══██╗</text>
    <text x="68" y="208">██████╔╝██████╔╝</text>
    <text x="68" y="244">██╔══██╗██╔══██╗</text>
    <text x="68" y="280">██████╔╝██████╔╝</text>
    <text x="68" y="316">╚═════╝ ╚═════╝</text>
  </g>

  <text x="505" y="112" font-size="14" fill="#8ea0b8">PS C:\Users\Bence&gt;</text>
  <text x="685" y="112" font-size="14" fill="#f3f6fb">Get-Profile</text>
  <text x="505" y="149" font-size="14" fill="#8ea0b8">Name</text>
  <text x="650" y="149" font-size="14" fill="#dce5f3">Budai Bence</text>
  <text x="505" y="177" font-size="14" fill="#8ea0b8">Role</text>
  <text x="650" y="177" font-size="14" fill="#dce5f3">Software Developer</text>
  <text x="505" y="205" font-size="14" fill="#8ea0b8">Primary</text>
  <text x="650" y="205" font-size="14" fill="#8db8ff">C# · .NET · ASP.NET Core</text>
  <text x="505" y="233" font-size="14" fill="#8ea0b8">Automation</text>
  <text x="650" y="233" font-size="14" fill="#c6a7ff">PowerShell · GitHub Actions</text>
  <text x="505" y="261" font-size="14" fill="#8ea0b8">Infrastructure</text>
  <text x="650" y="261" font-size="14" fill="#9edcf4">Windows Server · IIS · Docker · Tailscale</text>
  <text x="505" y="289" font-size="14" fill="#8ea0b8">Lab</text>
  <text x="650" y="289" font-size="14" fill="#8ce6aa">Local AI · MCP · Self-hosting</text>
  <text x="505" y="335" font-size="14" fill="#8ea0b8">PS C:\Users\Bence&gt;</text>
  <rect x="685" y="322" width="10" height="18" rx="1.5" fill="#dce5f3">
    <animate attributeName="opacity" values="1;.15;1" dur="1.1s" repeatCount="indefinite"/>
  </rect>

  <text x="68" y="368" font-size="13" fill="#728099">Budapest, Hungary · Óbuda University / NIK · Build → Automate → Improve</text>
</g>
</svg>