<svg xmlns="http://www.w3.org/2000/svg" width="1200" height="320" viewBox="0 0 1200 320" role="img" aria-labelledby="title desc">
<title id="title">BENCE.DEV developer command center</title>
<desc id="desc">Windows Terminal and PowerShell inspired profile header for Budai Bence, software developer focused on backend systems, automation, and infrastructure.</desc>
<rect width="1200" height="320" rx="24" fill="#eef4fa"/>
<rect x="24" y="20" width="1152" height="280" rx="18" fill="#ffffff" stroke="#cdd8e4"/>
<rect x="25" y="21" width="1150" height="42" rx="17" fill="#f5f8fc"/>
<path d="M25 63H1175" stroke="#cdd8e4"/>
<rect x="47" y="31" width="21" height="21" rx="5" fill="#0878d1"/>
<text x="57.5" y="45.5" text-anchor="middle" font-family="Consolas,monospace" font-size="8.5" font-weight="700" fill="#fff">PS</text>
<text x="80" y="47" font-family="Segoe UI,Arial,sans-serif" font-size="13" font-weight="650" fill="#334155">BENCE.DEV</text>
<rect x="189" y="27" width="126" height="30" rx="7" fill="#e8eff7"/>
<text x="205" y="47" font-family="Consolas,monospace" font-size="12" fill="#43566d">PowerShell</text>
<text x="335" y="47" font-family="Consolas,monospace" font-size="17" fill="#78889a">+</text>
<g font-family="Segoe UI,Arial,sans-serif" fill="#78889a" font-size="15"><text x="1070" y="47">—</text><text x="1110" y="47">□</text><text x="1148" y="47">×</text></g>
<g font-family="Consolas,ui-monospace,monospace">
<text x="64" y="98" font-size="14" fill="#1765a5">PS Dev:\&gt;</text>
<text x="143" y="98" font-size="14" fill="#44566b">.\profile.ps1</text>
<text x="64" y="139" font-size="12" fill="#75869a" letter-spacing="1.8">DEVELOPER COMMAND CENTER // PROFILE ONLINE</text>
</g>
<g font-family="Segoe UI,Arial,sans-serif">
<text x="62" y="197" font-size="49" font-weight="760" letter-spacing="-1.3" fill="#172334">BUDAI BENCE</text>
<text x="64" y="228" font-size="15" font-weight="750" letter-spacing="1.8" fill="#126bb3">SOFTWARE DEVELOPER</text>
<text x="64" y="258" font-size="17" fill="#53647a">Backend systems  /  Automation  /  Infrastructure</text>
</g>
<g transform="translate(885 98)">
<rect width="226" height="150" rx="13" fill="#f3f7fb" stroke="#d3deea"/>
<text x="22" y="31" font-family="Consolas,monospace" font-size="11" fill="#718399" letter-spacing="1.3">ENV://READY</text>
<path d="M22 48H204" stroke="#d6e0ea"/>
<text x="22" y="78" font-family="Consolas,monospace" font-size="13" fill="#1765a5">runtime</text><text x="104" y="78" font-family="Consolas,monospace" font-size="13" fill="#3d5066">.NET</text>
<text x="22" y="103" font-family="Consolas,monospace" font-size="13" fill="#1765a5">shell</text><text x="104" y="103" font-family="Consolas,monospace" font-size="13" fill="#3d5066">PowerShell</text>
<text x="22" y="128" font-family="Consolas,monospace" font-size="13" fill="#1765a5">platform</text><text x="104" y="128" font-family="Consolas,monospace" font-size="13" fill="#3d5066">Windows</text>
<rect x="193" y="118" width="6" height="16" rx="1.5" fill="#e3a426"/>
</g>
</svg>